Coordinates
version=1
nRows=21
nColumns=12
inDegrees=yes

Units are S.I. units (second, meters, Newtons, ...)
Angles are in degrees

endheader
time	SC_y	SC_z	SC_x	AC_y	AC_z	AC_x	GH_y	GH_z	GH_yy	EL_x	PS_y
       0.0              -50.23          24.48          83.59          61.63          -15.7         -13.33          166.8          40.87         -9.702          30.64          8.256
   0.04467              -50.23          24.48          83.58          61.63         -15.69         -13.32          166.8          40.87         -9.703          30.66          8.276
   0.08935              -50.23          24.48          83.57          61.63         -15.69         -13.32          166.7          40.88         -9.703          30.67          8.297
     0.134              -50.23          24.48          83.56          61.64         -15.69         -13.32          166.7          40.89         -9.703          30.69          8.319
    0.1787              -50.23          24.48          83.55          61.64         -15.68         -13.32          166.6           40.9         -9.703          30.71          8.342
    0.2234              -50.23          24.48          83.54          61.64         -15.68         -13.31          166.6           40.9         -9.703          30.73          8.367
     0.268              -50.23          24.48          83.52          61.64         -15.68         -13.31          166.5          40.91         -9.704          30.75          8.394
    0.3127              -50.23          24.47          83.51          61.64         -15.67         -13.31          166.4          40.92         -9.704          30.77          8.422
    0.3574              -50.22          24.47          83.49          61.64         -15.67         -13.31          166.4          40.93         -9.704           30.8          8.453
    0.4021              -50.22          24.47          83.48          61.64         -15.66          -13.3          166.3          40.94         -9.704          30.82          8.486
    0.4467              -50.22          24.47          83.46          61.65         -15.66          -13.3          166.2          40.95         -9.705          30.85          8.521
    0.4914              -50.22          24.47          83.44          61.65         -15.65         -13.29          166.1          40.97         -9.705          30.88          8.559
    0.5361              -50.22          24.47          83.42          61.65         -15.65         -13.29          166.0          40.98         -9.705          30.91            8.6
    0.5808              -50.22          24.47           83.4          61.65         -15.64         -13.28          165.9          40.99         -9.706          30.95          8.644
    0.6254              -50.21          24.47          83.37          61.65         -15.63         -13.28          165.8          41.01         -9.706          30.99          8.692
    0.6701              -50.21          24.47          83.35          61.66         -15.62         -13.27          165.7          41.03         -9.707          31.03          8.744
    0.7148              -50.21          24.47          83.32          61.66         -15.62         -13.27          165.6          41.04         -9.707          31.07            8.8
    0.7595              -50.21          24.46          83.29          61.66         -15.61         -13.26          165.4          41.06         -9.707          31.12          8.861
    0.8041               -50.2          24.46          83.25          61.67          -15.6         -13.25          165.3          41.09         -9.708          31.17          8.928
    0.8488               -50.2          24.46          83.21          61.67         -15.59         -13.24          165.1          41.11         -9.709          31.23          9.002
    0.8935               -50.2          24.46          83.17          61.67         -15.57         -13.23          164.9          41.13         -9.709           31.3          9.082
